<svg xmlns="http://www.w3.org/2000/svg" width="208" height="64" viewBox="0 0 208 64" fill="none"><rect width="208" height="64" rx="12" fill="black"></rect><path d="M51.383 30.9445C51.3993 29.682 51.7346 28.4441 52.3579 27.346C52.9811 26.2479 53.872 25.3253 54.9476 24.664C54.2643 23.6881 53.3629 22.8849 52.3149 22.3184C51.2669 21.7518 50.1012 21.4374 48.9104 21.4002C46.3704 21.1336 43.9079 22.9201 42.6135 22.9201C41.294 22.9201 39.3011 21.4266 37.1551 21.4708C35.767 21.5156 34.4142 21.9193 33.2285 22.6424C32.0427 23.3656 31.0645 24.3835 30.3892 25.5971C27.4638 30.662 29.6459 38.1058 32.4482 42.1999C33.8503 44.2047 35.4889 46.4441 37.633 46.3647C39.7311 46.2777 40.5147 45.0268 43.0473 45.0268C45.5564 45.0268 46.2916 46.3647 48.4792 46.3142C50.7306 46.2777 52.1491 44.3005 53.5019 42.2768C54.5093 40.8483 55.2845 39.2695 55.7988 37.5989C54.4908 37.0457 53.3746 36.1197 52.5893 34.9363C51.8041 33.753 51.3845 32.3647 51.383 30.9445Z" fill="white"></path><path d="M47.2507 18.7078C48.4783 17.2342 49.083 15.3401 48.9366 13.4277C47.0612 13.6247 45.3288 14.521 44.0847 15.9381C43.4764 16.6304 43.0105 17.4358 42.7136 18.3082C42.4168 19.1807 42.2948 20.1031 42.3546 21.0227C43.2927 21.0324 44.2207 20.829 45.0688 20.4281C45.9169 20.0271 46.6629 19.4389 47.2507 18.7078Z" fill="white"></path><path d="M77.9042 41.2889H70.7443L69.0249 46.366H65.9922L72.774 27.582H75.9248L82.7066 46.366H79.6222L77.9042 41.2889ZM71.4858 38.9461H77.1613L74.3635 30.7063H74.2852L71.4858 38.9461Z" fill="white"></path><path d="M97.3525 39.5195C97.3525 43.7752 95.0746 46.5095 91.6372 46.5095C90.7665 46.5551 89.9005 46.3545 89.1384 45.9307C88.3764 45.507 87.749 44.8772 87.3283 44.1135H87.2632V50.8967H84.4521V32.6712H87.1732V34.949H87.2249C87.665 34.189 88.3029 33.5625 89.0708 33.1361C89.8386 32.7098 90.7077 32.4996 91.5855 32.5279C95.0613 32.5279 97.3525 35.2755 97.3525 39.5195ZM94.4631 39.5195C94.4631 36.7468 93.0302 34.9239 90.844 34.9239C88.6961 34.9239 87.2515 36.7852 87.2515 39.5195C87.2515 42.2788 88.6961 44.1268 90.844 44.1268C93.0302 44.1268 94.4631 42.3173 94.4631 39.5195Z" fill="white"></path><path d="M112.427 39.5194C112.427 43.7752 110.149 46.5095 106.711 46.5095C105.841 46.555 104.975 46.3545 104.213 45.9307C103.451 45.507 102.823 44.8772 102.403 44.1135H102.337V50.8967H99.5264V32.6712H102.247V34.949H102.299C102.739 34.189 103.377 33.5625 104.145 33.1361C104.913 32.7098 105.782 32.4996 106.66 32.5279C110.136 32.5279 112.427 35.2755 112.427 39.5194ZM109.537 39.5194C109.537 36.7468 108.104 34.9239 105.918 34.9239C103.77 34.9239 102.326 36.7852 102.326 39.5194C102.326 42.2788 103.77 44.1268 105.918 44.1268C108.104 44.1268 109.537 42.3172 109.537 39.5194H109.537Z" fill="white"></path><path d="M122.388 41.133C122.596 42.9958 124.406 44.2188 126.879 44.2188C129.248 44.2188 130.953 42.9957 130.953 41.3161C130.953 39.8581 129.925 38.9851 127.49 38.3869L125.056 37.8004C121.607 36.9673 120.005 35.3542 120.005 32.7366C120.005 29.4957 122.83 27.2695 126.84 27.2695C130.81 27.2695 133.531 29.4957 133.622 32.7366H130.784C130.615 30.8621 129.065 29.7305 126.8 29.7305C124.536 29.7305 122.986 30.8754 122.986 32.5416C122.986 33.8696 123.976 34.651 126.397 35.2493L128.467 35.7574C132.321 36.6688 133.922 38.217 133.922 40.9645C133.922 44.4787 131.123 46.6797 126.67 46.6797C122.505 46.6797 119.692 44.5304 119.511 41.1329L122.388 41.133Z" fill="white"></path><path d="M139.988 29.4316V32.6726H142.593V34.8987H139.988V42.4486C139.988 43.6215 140.51 44.1681 141.655 44.1681C141.964 44.1627 142.273 44.141 142.579 44.103V46.3158C142.065 46.412 141.542 46.4556 141.018 46.4458C138.245 46.4458 137.164 45.4044 137.164 42.7484V34.8987H135.173V32.6726H137.164V29.4316H139.988Z" fill="white"></path><path d="M144.102 39.5205C144.102 35.2116 146.639 32.5039 150.597 32.5039C154.567 32.5039 157.093 35.2115 157.093 39.5205C157.093 43.8413 154.581 46.5372 150.597 46.5372C146.614 46.5372 144.102 43.8413 144.102 39.5205ZM154.229 39.5205C154.229 36.5647 152.875 34.8201 150.597 34.8201C148.319 34.8201 146.966 36.578 146.966 39.5205C146.966 42.4882 148.319 44.2195 150.597 44.2195C152.875 44.2195 154.229 42.4882 154.229 39.5205H154.229Z" fill="white"></path><path d="M159.411 32.6711H162.092V35.0021H162.157C162.339 34.274 162.765 33.6307 163.365 33.1801C163.965 32.7295 164.702 32.4991 165.451 32.5278C165.775 32.5266 166.098 32.5618 166.415 32.6327V35.2621C166.006 35.1371 165.579 35.0797 165.151 35.0922C164.743 35.0756 164.336 35.1476 163.958 35.3032C163.58 35.4589 163.24 35.6944 162.962 35.9938C162.684 36.2931 162.474 36.6491 162.346 37.0374C162.218 37.4256 162.176 37.8369 162.222 38.243V46.3661H159.411L159.411 32.6711Z" fill="white"></path><path d="M179.375 42.3449C178.997 44.831 176.576 46.5372 173.478 46.5372C169.494 46.5372 167.021 43.8679 167.021 39.5855C167.021 35.2899 169.508 32.5039 173.36 32.5039C177.149 32.5039 179.532 35.1067 179.532 39.2591V40.2222H169.859V40.3921C169.815 40.8961 169.878 41.4038 170.044 41.8816C170.211 42.3593 170.477 42.7962 170.826 43.1631C171.174 43.5299 171.597 43.8185 172.065 44.0095C172.534 44.2006 173.038 44.2898 173.543 44.2712C174.208 44.3334 174.874 44.1796 175.444 43.8325C176.014 43.4854 176.456 42.9637 176.706 42.3449L179.375 42.3449ZM169.872 38.2575H176.719C176.744 37.8044 176.676 37.3509 176.517 36.9255C176.359 36.5001 176.115 36.1121 175.799 35.7857C175.484 35.4593 175.104 35.2017 174.684 35.0289C174.265 34.8561 173.814 34.772 173.36 34.7817C172.902 34.779 172.449 34.867 172.025 35.0405C171.601 35.2141 171.216 35.4698 170.892 35.793C170.568 36.1161 170.311 36.5003 170.136 36.9233C169.961 37.3463 169.871 37.7998 169.872 38.2576V38.2575Z" fill="white"></path><path d="M71.1341 13.4438C71.7235 13.4015 72.3148 13.4906 72.8656 13.7045C73.4164 13.9185 73.9128 14.252 74.3191 14.681C74.7254 15.11 75.0313 15.6238 75.215 16.1854C75.3986 16.747 75.4553 17.3424 75.381 17.9286C75.381 20.812 73.8226 22.4695 71.1341 22.4695H67.874V13.4438H71.1341ZM69.2758 21.1931H70.9775C71.3986 21.2183 71.8201 21.1492 72.2112 20.991C72.6022 20.8327 72.9531 20.5893 73.2382 20.2783C73.5234 19.9674 73.7356 19.5968 73.8594 19.1935C73.9832 18.7902 74.0155 18.3643 73.954 17.947C74.0111 17.5312 73.9755 17.108 73.8497 16.7077C73.724 16.3074 73.5113 15.9398 73.2268 15.6313C72.9423 15.3228 72.5932 15.0811 72.2043 14.9234C71.8154 14.7658 71.3965 14.6961 70.9775 14.7193H69.2758V21.1931Z" fill="white"></path><path d="M76.9644 19.0614C76.9215 18.6138 76.9727 18.1622 77.1147 17.7355C77.2566 17.3089 77.4862 16.9166 77.7886 16.5838C78.0911 16.2511 78.4597 15.9852 78.8709 15.8033C79.2821 15.6213 79.7268 15.5273 80.1765 15.5273C80.6262 15.5273 81.0709 15.6213 81.4821 15.8033C81.8933 15.9852 82.2619 16.2511 82.5644 16.5838C82.8668 16.9166 83.0964 17.3089 83.2383 17.7355C83.3803 18.1622 83.4315 18.6138 83.3886 19.0614C83.4323 19.5095 83.3817 19.9618 83.2401 20.3891C83.0985 20.8165 82.8691 21.2095 82.5666 21.5429C82.2641 21.8763 81.8952 22.1427 81.4835 22.3251C81.0719 22.5074 80.6267 22.6016 80.1765 22.6016C79.7263 22.6016 79.2811 22.5074 78.8695 22.3251C78.4578 22.1427 78.0889 21.8763 77.7864 21.5429C77.4839 21.2095 77.2545 20.8165 77.1129 20.3891C76.9713 19.9618 76.9207 19.5095 76.9644 19.0614ZM82.006 19.0614C82.006 17.585 81.3427 16.7216 80.1787 16.7216C79.0103 16.7216 78.353 17.585 78.353 19.0615C78.353 20.5497 79.0103 21.4065 80.1787 21.4065C81.3427 21.4065 82.006 20.5438 82.006 19.0614H82.006Z" fill="white"></path><path d="M91.9284 22.4695H90.534L89.1262 17.453H89.0199L87.618 22.4695H86.2368L84.3593 15.6582H85.7228L86.9429 20.8556H87.0434L88.4437 15.6582H89.7333L91.1337 20.8556H91.2401L92.4543 15.6582H93.7985L91.9284 22.4695Z" fill="white"></path><path d="M95.3779 15.6597H96.6719V16.7417H96.7723C96.9427 16.3531 97.2302 16.0273 97.5945 15.8098C97.9589 15.5922 98.382 15.4938 98.8049 15.5282C99.1364 15.5033 99.4691 15.5532 99.7786 15.6744C100.088 15.7956 100.366 15.9848 100.593 16.2281C100.819 16.4714 100.988 16.7625 101.087 17.0799C101.185 17.3973 101.211 17.7328 101.163 18.0616V22.4709H99.8183V18.3991C99.8183 17.3045 99.3427 16.7602 98.3485 16.7602C98.1235 16.7497 97.8989 16.788 97.69 16.8724C97.4812 16.9569 97.2931 17.0855 97.1386 17.2494C96.9841 17.4134 96.8669 17.6088 96.795 17.8223C96.7232 18.0358 96.6983 18.2623 96.7221 18.4863V22.471H95.3779L95.3779 15.6597Z" fill="white"></path><path d="M103.305 13H104.649V22.4702H103.305V13Z" fill="white"></path><path d="M106.517 19.0616C106.474 18.6139 106.525 18.1623 106.667 17.7356C106.809 17.3089 107.039 16.9166 107.342 16.5838C107.644 16.2511 108.013 15.9852 108.424 15.8033C108.835 15.6213 109.28 15.5273 109.73 15.5273C110.179 15.5273 110.624 15.6213 111.035 15.8033C111.446 15.9852 111.815 16.2511 112.118 16.5838C112.42 16.9166 112.65 17.3089 112.792 17.7356C112.934 18.1623 112.985 18.6139 112.942 19.0616C112.986 19.5097 112.935 19.9619 112.793 20.3893C112.652 20.8166 112.422 21.2096 112.12 21.543C111.817 21.8764 111.448 22.1428 111.037 22.3252C110.625 22.5075 110.18 22.6017 109.73 22.6017C109.279 22.6017 108.834 22.5075 108.422 22.3252C108.011 22.1428 107.642 21.8764 107.339 21.543C107.037 21.2096 106.807 20.8166 106.666 20.3893C106.524 19.9619 106.473 19.5097 106.517 19.0616ZM111.559 19.0616C111.559 17.5851 110.895 16.7217 109.731 16.7217C108.563 16.7217 107.906 17.5851 107.906 19.0616C107.906 20.5499 108.563 21.4066 109.731 21.4066C110.895 21.4066 111.559 20.5439 111.559 19.0616H111.559Z" fill="white"></path><path d="M114.357 20.5439C114.357 19.3178 115.27 18.611 116.891 18.5105L118.736 18.4042V17.8162C118.736 17.0968 118.26 16.6906 117.341 16.6906C116.591 16.6906 116.071 16.9661 115.922 17.4477H114.62C114.758 16.2777 115.858 15.5273 117.403 15.5273C119.111 15.5273 120.074 16.3774 120.074 17.8162V22.4701H118.78V21.5129H118.674C118.458 21.8563 118.155 22.1362 117.795 22.3241C117.436 22.5119 117.033 22.6011 116.628 22.5823C116.342 22.6121 116.053 22.5816 115.779 22.4928C115.506 22.404 115.254 22.2589 115.04 22.0668C114.826 21.8748 114.655 21.64 114.537 21.3777C114.42 21.1154 114.358 20.8313 114.357 20.5439ZM118.736 19.9618V19.3924L117.072 19.4988C116.134 19.5615 115.709 19.8806 115.709 20.4811C115.709 21.0941 116.241 21.4508 116.972 21.4508C117.186 21.4725 117.403 21.4509 117.608 21.3872C117.814 21.3236 118.005 21.2192 118.17 21.0802C118.334 20.9413 118.469 20.7707 118.566 20.5786C118.664 20.3864 118.721 20.1767 118.736 19.9618Z" fill="white"></path><path d="M121.841 19.0617C121.841 16.9094 122.947 15.546 124.668 15.546C125.094 15.5263 125.516 15.6283 125.886 15.8399C126.256 16.0515 126.558 16.364 126.757 16.7409H126.858V13H128.202V22.4702H126.914V21.3941H126.807C126.593 21.7685 126.281 22.0771 125.904 22.2866C125.526 22.4961 125.099 22.5984 124.668 22.5825C122.936 22.5826 121.841 21.2191 121.841 19.0617ZM123.23 19.0617C123.23 20.5064 123.911 21.3757 125.049 21.3757C126.182 21.3757 126.883 20.4938 126.883 19.0676C126.883 17.648 126.175 16.7536 125.049 16.7536C123.918 16.7536 123.23 17.6288 123.23 19.0617H123.23Z" fill="white"></path><path d="M133.763 19.0614C133.72 18.6138 133.772 18.1622 133.914 17.7355C134.055 17.3089 134.285 16.9166 134.587 16.5838C134.89 16.2511 135.259 15.9852 135.67 15.8033C136.081 15.6213 136.526 15.5273 136.975 15.5273C137.425 15.5273 137.87 15.6213 138.281 15.8033C138.692 15.9852 139.061 16.2511 139.363 16.5838C139.666 16.9166 139.895 17.3089 140.037 17.7355C140.179 18.1622 140.23 18.6138 140.187 19.0614C140.231 19.5095 140.181 19.9618 140.039 20.3891C139.897 20.8165 139.668 21.2095 139.365 21.5429C139.063 21.8763 138.694 22.1427 138.282 22.3251C137.871 22.5074 137.426 22.6016 136.975 22.6016C136.525 22.6016 136.08 22.5074 135.668 22.3251C135.257 22.1427 134.888 21.8763 134.585 21.5429C134.283 21.2095 134.053 20.8165 133.912 20.3891C133.77 19.9618 133.72 19.5095 133.763 19.0614ZM138.805 19.0614C138.805 17.585 138.142 16.7216 136.978 16.7216C135.809 16.7216 135.152 17.585 135.152 19.0615C135.152 20.5497 135.809 21.4065 136.978 21.4065C138.142 21.4065 138.805 20.5438 138.805 19.0614Z" fill="white"></path><path d="M141.991 15.6597H143.285V16.7417H143.386C143.556 16.3531 143.843 16.0273 144.208 15.8098C144.572 15.5922 144.995 15.4938 145.418 15.5282C145.75 15.5033 146.082 15.5532 146.392 15.6744C146.701 15.7956 146.98 15.9848 147.206 16.2281C147.432 16.4714 147.601 16.7625 147.7 17.0799C147.799 17.3973 147.824 17.7328 147.776 18.0616V22.4709H146.432V18.3991C146.432 17.3045 145.956 16.7602 144.962 16.7602C144.737 16.7497 144.512 16.788 144.303 16.8724C144.094 16.9569 143.906 17.0855 143.752 17.2494C143.597 17.4134 143.48 17.6088 143.408 17.8223C143.336 18.0358 143.312 18.2623 143.335 18.4863V22.471H141.991V15.6597Z" fill="white"></path><path d="M155.371 13.9629V15.6897H156.847V16.822H155.371V20.3244C155.371 21.0379 155.665 21.3503 156.334 21.3503C156.506 21.3498 156.677 21.3394 156.847 21.3193V22.439C156.606 22.4822 156.361 22.5051 156.116 22.5077C154.621 22.5077 154.026 21.9818 154.026 20.6686V16.8219H152.944V15.6897H154.026V13.9629H155.371Z" fill="white"></path><path d="M158.684 13H160.016V16.7535H160.122C160.301 16.3613 160.596 16.0337 160.968 15.8153C161.34 15.597 161.77 15.4985 162.199 15.5334C162.529 15.5154 162.858 15.5705 163.164 15.6946C163.47 15.8187 163.745 16.0088 163.969 16.2513C164.193 16.4939 164.361 16.7828 164.461 17.0977C164.56 17.4125 164.589 17.7454 164.545 18.0727V22.4703H163.199V18.4043C163.199 17.3163 162.693 16.7653 161.743 16.7653C161.512 16.7464 161.279 16.7782 161.062 16.8584C160.844 16.9387 160.647 17.0655 160.484 17.2299C160.32 17.3944 160.195 17.5926 160.116 17.8106C160.037 18.0287 160.007 18.2613 160.028 18.4922V22.4702H158.684L158.684 13Z" fill="white"></path><path d="M172.383 20.6311C172.2 21.2536 171.805 21.7921 171.265 22.1524C170.725 22.5126 170.076 22.6716 169.431 22.6017C168.983 22.6135 168.537 22.5276 168.125 22.3498C167.712 22.172 167.344 21.9067 167.044 21.5722C166.745 21.2377 166.522 20.842 166.391 20.4127C166.26 19.9834 166.224 19.5307 166.285 19.086C166.225 18.6399 166.262 18.1863 166.393 17.7557C166.524 17.325 166.746 16.9276 167.043 16.5901C167.341 16.2527 167.708 15.9832 168.119 15.7999C168.53 15.6165 168.975 15.5236 169.426 15.5275C171.321 15.5275 172.464 16.8223 172.464 18.9611V19.4302H167.654V19.5055C167.633 19.7555 167.665 20.0071 167.747 20.2442C167.828 20.4813 167.959 20.6987 168.13 20.8824C168.301 21.0661 168.508 21.2121 168.738 21.311C168.969 21.41 169.218 21.4596 169.468 21.4568C169.79 21.4954 170.116 21.4375 170.404 21.2905C170.693 21.1435 170.931 20.9139 171.089 20.6311L172.383 20.6311ZM167.654 18.436H171.095C171.112 18.2074 171.081 17.9778 171.004 17.7619C170.926 17.5461 170.805 17.3487 170.647 17.1825C170.489 17.0163 170.298 16.885 170.087 16.797C169.875 16.709 169.647 16.6663 169.418 16.6715C169.186 16.6686 168.955 16.7123 168.74 16.7999C168.524 16.8876 168.329 17.0174 168.164 17.1819C168 17.3463 167.87 17.542 167.782 17.7574C167.695 17.9728 167.651 18.2035 167.654 18.436H167.654Z" fill="white"></path></svg>